<?xml version="1.0" encoding="UTF-8"?>
<svg xmlns="http://www.w3.org/2000/svg" width="1920" height="1080" viewBox="0 0 1920 1080"><rect x="0" y="0" width="1920" height="1080" fill="#F4F3EF"/><text x="64" y="90" font-family="Segoe UI, Arial, sans-serif" font-size="60" font-weight="900" letter-spacing="-1.5" fill="#111111">CAPITAL OCULTO — VISUAL SYSTEM V3</text><text x="68" y="140" font-family="Segoe UI, Arial, sans-serif" font-size="26" font-weight="700" fill="#111111" opacity="0.66">VALIDAÇÃO EXATA A 25% · HIERARQUIA, ESCALA E COMPOSIÇÃO</text><rect x="74" y="214" width="492" height="282" rx="20" fill="#F4F3EF" stroke="#111111" stroke-width="4"/><image href="s001.svg" x="80" y="220" width="480" height="270" preserveAspectRatio="xMidYMid meet"/><rect x="80" y="172" width="108" height="44" rx="12" fill="#111111"/><text x="134" y="203" text-anchor="middle" font-family="Segoe UI, Arial, sans-serif" font-size="23" font-weight="800" fill="#F4F3EF">S001</text><text x="80" y="545" font-family="Segoe UI, Arial, sans-serif" font-size="25" font-weight="800" fill="#111111">A · PERSONAGEM + METÁFORA</text><rect x="714" y="214" width="492" height="282" rx="20" fill="#F4F3EF" stroke="#111111" stroke-width="4"/><image href="s007.svg" x="720" y="220" width="480" height="270" preserveAspectRatio="xMidYMid meet"/><rect x="720" y="172" width="108" height="44" rx="12" fill="#111111"/><text x="774" y="203" text-anchor="middle" font-family="Segoe UI, Arial, sans-serif" font-size="23" font-weight="800" fill="#F4F3EF">S007</text><text x="720" y="545" font-family="Segoe UI, Arial, sans-serif" font-size="25" font-weight="800" fill="#111111">B · METÁFORA DOMINANTE</text><rect x="1354" y="214" width="492" height="282" rx="20" fill="#F4F3EF" stroke="#111111" stroke-width="4"/><image href="s033.svg" x="1360" y="220" width="480" height="270" preserveAspectRatio="xMidYMid meet"/><rect x="1360" y="172" width="108" height="44" rx="12" fill="#111111"/><text x="1414" y="203" text-anchor="middle" font-family="Segoe UI, Arial, sans-serif" font-size="23" font-weight="800" fill="#F4F3EF">S033</text><text x="1360" y="545" font-family="Segoe UI, Arial, sans-serif" font-size="25" font-weight="800" fill="#111111">E · NÚMERO DOMINANTE</text><text x="96" y="675" font-family="Segoe UI, Arial, sans-serif" font-size="34" font-weight="900" fill="#111111">1 IDEIA DOMINANTE</text><text x="700" y="675" font-family="Segoe UI, Arial, sans-serif" font-size="34" font-weight="900" fill="#111111">PERSONAGEM OPCIONAL</text><text x="1325" y="675" font-family="Segoe UI, Arial, sans-serif" font-size="34" font-weight="900" fill="#111111">1 MOVIMENTO POR VEZ</text><rect x="64" y="790" width="1792" height="190" rx="24" fill="#111111"/><text x="960" y="905" text-anchor="middle" font-family="Segoe UI, Arial, sans-serif" font-size="42" font-weight="900" fill="#F4F3EF">SE NÃO FUNCIONA PARADA, SEM ÁUDIO E PEQUENA: SIMPLIFICAR</text></svg>
