<?xml version="1.0" encoding="UTF-8"?>
<svg xmlns="http://www.w3.org/2000/svg" width="1920" height="1080" viewBox="0 0 1920 1080" role="img">
<metadata>{"actions": [{"animation": "tilt_up", "duration": 4.5, "start": 0.4, "target": "camera"}, {"animation": "draw_path", "duration": 2.5, "start": 1.0, "target": "relative-steps-s024--marker"}], "asset_id": "A20", "camera": {"focus": "worker", "shot": "wide", "tilt": "bottom_to_top"}, "composition": "relative_position_stairs", "descriptor_source": "assets/vector_scenes.json", "duration_seconds": 11, "episode_id": "CO-001", "generated_at": "2026-09-24T12:04:52-03:00", "motion": "Câmera inclina para o topo", "rigged_characters": true, "scene_id": "S024", "source": "04_ROTEIRO_VISUAL.csv", "style_id": "CO_SKETCH_V1", "visual": "Escada de cinco degraus com personagens; protagonista olha mais para cima do que para baixo"}</metadata><defs><style>
    .ink,.limb,.shoe,.neck,.face-line,.growth,.balance-low,.calendar-line,.phone-detail { fill:none; stroke:#171918; stroke-width:14; stroke-linecap:round; stroke-linejoin:round; }
    .ghost { opacity:.16; stroke-width:5; }
    .limb { stroke-width:18; } .shoe { stroke-width:24; } .neck { stroke-width:18; }
    .face-line { stroke-width:8; } .eye { fill:#171918; } .mouth-open { fill:#171918; }
    .head { fill:#F3EBDD; stroke:#171918; stroke-width:13; } .hair { fill:#171918; stroke:#171918; stroke-width:8; stroke-linejoin:round; }
    .outfit { fill:#171918; stroke:#171918; stroke-width:10; } .pocket { fill:#A8D83E; }
    .phone-shell { fill:#171918; stroke:#FFFDF7; stroke-width:8; }
    .phone-screen { fill:#26302C; stroke:#343936; stroke-width:4; }
    .phone-detail { stroke:#FFFDF7; stroke-width:6; } .alert-card { fill:#FFFDF7; stroke:#A8D83E; stroke-width:9; }
    .growth { stroke:#A8D83E; stroke-width:15; } .balance-low { stroke:#D95F59; stroke-width:13; }
    .paper-card { fill:#FFFDF7; stroke:#171918; stroke-width:11; }
    .calendar-line { stroke-width:10; } .calendar-dot { fill:#F5C84B; stroke:#171918; stroke-width:5; }
    .bill { fill:#FFFDF7; stroke:#D95F59; stroke-width:9; } .bill-dot { fill:#D95F59; }
    .headline { font-family:Trebuchet MS, Arial Rounded MT Bold, Arial, sans-serif; font-size:72px; font-weight:900; letter-spacing:1px; fill:#171918; }
    .headline-light { font-family:Trebuchet MS, Arial Rounded MT Bold, Arial, sans-serif; font-size:72px; font-weight:900; letter-spacing:1px; fill:#FFFDF7; }
    .label { font-family:Trebuchet MS, Arial Rounded MT Bold, Arial, sans-serif; font-size:38px; font-weight:800; fill:#171918; }
    .label-light { font-family:Trebuchet MS, Arial Rounded MT Bold, Arial, sans-serif; font-size:38px; font-weight:800; fill:#FFFDF7; }
    .rough { filter:url(#roughen); }
    </style><filter id="roughen" x="-5%" y="-5%" width="110%" height="110%"><feTurbulence type="fractalNoise" baseFrequency="0.009" numOctaves="1" seed="23" result="noise"/><feDisplacementMap in="SourceGraphic" in2="noise" scale="1.35" xChannelSelector="R" yChannelSelector="G"/></filter><pattern id="paperDots" width="22" height="22" patternUnits="userSpaceOnUse"><circle cx="4" cy="4" r="1.1" fill="#171918" opacity="0.1"/></pattern><marker id="arrow" viewBox="0 0 12 12" refX="10" refY="6" markerWidth="10" markerHeight="10" orient="auto-start-reverse"><path d="M 0 0 L 12 6 L 0 12 Z" class="arrow-fill"/></marker><marker id="arrow-yellow" viewBox="0 0 12 12" refX="10" refY="6" markerWidth="10" markerHeight="10" orient="auto-start-reverse"><path d="M 0 0 L 12 6 L 0 12 Z" fill="#F5C84B"/></marker><marker id="arrow-dark" viewBox="0 0 12 12" refX="10" refY="6" markerWidth="10" markerHeight="10" orient="auto-start-reverse"><path d="M 0 0 L 12 6 L 0 12 Z" fill="#171918"/></marker><style>.arrow-fill{fill:#A8D83E;stroke:none}</style></defs><rect x="0" y="0" width="1920" height="1080" fill="#F3EBDD"/><rect x="0" y="0" width="1920" height="1080" fill="url(#paperDots)"/><text x="116" y="142" class="headline">POSIÇÃO RELATIVA</text><g id="relative-steps-s024" class="rough" transform="translate(960 560) scale(1.25)" data-object="relative-steps"><path d="M -480 180 L -290 180 L -290 270 L -480 270 Z" fill="#FFFDF7" stroke="#171918" stroke-width="11"/><path d="M -290 75 L -100 75 L -100 270 L -290 270 Z" fill="#FFFDF7" stroke="#171918" stroke-width="11"/><path d="M -100 -30 L 90 -30 L 90 270 L -100 270 Z" fill="#FFFDF7" stroke="#171918" stroke-width="11"/><path d="M 90 -135 L 280 -135 L 280 270 L 90 270 Z" fill="#FFFDF7" stroke="#171918" stroke-width="11"/><path d="M 280 -240 L 470 -240 L 470 270 L 280 270 Z" fill="#FFFDF7" stroke="#171918" stroke-width="11"/><path d="M -20 145 L -20 -42 L 170 -42" id="relative-steps-s024--marker" data-part="marker" fill="none" stroke="#A8D83E" stroke-width="14" stroke-linecap="round" marker-end="url(#arrow)"/></g><g id="peer-s024-1" class="character rough character-rig" data-rig="CO_WORKER_V1" data-expression="neutral" data-pose="neutral" transform="translate(479 747) scale(0.42 0.42)"><g id="peer-s024-1--leg-left" class="rig-part" data-part="leg-left" style="transform-origin:-32px -65px"><path d="M -32.0 -65.0 Q -40.4 12.6 -68.0 92.0" class="limb"/><path d="M -31.1 -64.1 Q -42.1 10.1 -67.6 90.5" class="limb ghost"/><line x1="-90" y1="92" x2="-50" y2="92" class="shoe"/></g><g id="peer-s024-1--leg-right" class="rig-part" data-part="leg-right" style="transform-origin:32px -65px"><path d="M 32.0 -65.0 Q 59.2 20.9 68.0 92.0" class="limb"/><path d="M 32.9 -66.1 Q 58.2 22.2 69.2 90.1" class="limb ghost"/><line x1="50" y1="92" x2="90" y2="92" class="shoe"/></g><g id="peer-s024-1--arm-left" class="rig-part" data-part="arm-left" style="transform-origin:-43px -200px"><path d="M -43.0 -200.0 Q -79.6 -152.3 -120.0 -90.0" class="limb"/><path d="M -41.1 -198.3 Q -79.7 -151.3 -121.1 -91.1" class="limb ghost"/></g><g id="peer-s024-1--arm-right" class="rig-part" data-part="arm-right" style="transform-origin:43px -200px"><path d="M 43.0 -200.0 Q 73.1 -142.2 120.0 -90.0" class="limb"/><path d="M 41.7 -199.1 Q 73.7 -142.9 120.5 -89.7" class="limb ghost"/></g><g id="peer-s024-1--torso" class="rig-part" data-part="torso"><rect x="-62" y="-244" width="124" height="188" rx="42" class="outfit"/><rect x="18" y="-199" width="26" height="28" rx="5" class="pocket"/><line x1="0" y1="-248" x2="0" y2="-257" class="neck"/></g><g id="peer-s024-1--head" class="rig-part" data-part="head" style="transform-origin:0px -334px" transform="rotate(0 0 -334)"><circle cx="0" cy="-334" r="91" class="head"/><circle cx="-27" cy="-342" r="7" class="eye"/><circle cx="27" cy="-342" r="7" class="eye"/><path d="M -44 -369 Q -27 -376 -10 -369" class="face-line"/><path d="M 10 -369 Q 27 -376 44 -369" class="face-line"/><path d="M -24 -310 Q 0 -298 24 -310" class="face-line"/></g></g><g id="peer-s024-2" class="character rough character-rig" data-rig="CO_WORKER_V1" data-expression="relieved" data-pose="neutral" transform="translate(716 656) scale(0.42 0.42)"><g id="peer-s024-2--leg-left" class="rig-part" data-part="leg-left" style="transform-origin:-32px -65px"><path d="M -32.0 -65.0 Q -40.4 12.6 -68.0 92.0" class="limb"/><path d="M -31.1 -64.1 Q -42.1 10.1 -67.6 90.5" class="limb ghost"/><line x1="-90" y1="92" x2="-50" y2="92" class="shoe"/></g><g id="peer-s024-2--leg-right" class="rig-part" data-part="leg-right" style="transform-origin:32px -65px"><path d="M 32.0 -65.0 Q 59.2 20.9 68.0 92.0" class="limb"/><path d="M 32.9 -66.1 Q 58.2 22.2 69.2 90.1" class="limb ghost"/><line x1="50" y1="92" x2="90" y2="92" class="shoe"/></g><g id="peer-s024-2--arm-left" class="rig-part" data-part="arm-left" style="transform-origin:-43px -200px"><path d="M -43.0 -200.0 Q -79.6 -152.3 -120.0 -90.0" class="limb"/><path d="M -41.1 -198.3 Q -79.7 -151.3 -121.1 -91.1" class="limb ghost"/></g><g id="peer-s024-2--arm-right" class="rig-part" data-part="arm-right" style="transform-origin:43px -200px"><path d="M 43.0 -200.0 Q 73.1 -142.2 120.0 -90.0" class="limb"/><path d="M 41.7 -199.1 Q 73.7 -142.9 120.5 -89.7" class="limb ghost"/></g><g id="peer-s024-2--torso" class="rig-part" data-part="torso"><rect x="-62" y="-244" width="124" height="188" rx="42" class="outfit"/><rect x="18" y="-199" width="26" height="28" rx="5" class="pocket"/><line x1="0" y1="-248" x2="0" y2="-257" class="neck"/></g><g id="peer-s024-2--head" class="rig-part" data-part="head" style="transform-origin:0px -334px" transform="rotate(0 0 -334)"><circle cx="0" cy="-334" r="91" class="head"/><circle cx="-27" cy="-342" r="7" class="eye"/><circle cx="27" cy="-342" r="7" class="eye"/><path d="M -45 -368 Q -27 -374 -9 -368" class="face-line"/><path d="M 9 -368 Q 27 -374 45 -368" class="face-line"/><path d="M -28 -318 Q 0 -290 28 -318" class="face-line"/></g></g><g id="worker-s024" class="character rough character-rig" data-rig="CO_WORKER_V1" data-expression="realization" data-pose="pointing" transform="translate(954 559) scale(-0.46 0.46)"><g id="worker-s024--leg-left" class="rig-part" data-part="leg-left" style="transform-origin:-32px -65px"><path d="M -32.0 -65.0 Q -42.4 12.6 -72.0 92.0" class="limb"/><path d="M -31.1 -64.1 Q -44.1 10.1 -71.6 90.5" class="limb ghost"/><line x1="-94" y1="92" x2="-54" y2="92" class="shoe"/></g><g id="worker-s024--leg-right" class="rig-part" data-part="leg-right" style="transform-origin:32px -65px"><path d="M 32.0 -65.0 Q 61.2 20.9 72.0 92.0" class="limb"/><path d="M 32.9 -66.1 Q 60.2 22.2 73.2 90.1" class="limb ghost"/><line x1="54" y1="92" x2="94" y2="92" class="shoe"/></g><g id="worker-s024--arm-left" class="rig-part" data-part="arm-left" style="transform-origin:-43px -200px"><path d="M -43.0 -200.0 Q -122.1 -314.3 -205.0 -414.0" class="limb"/><path d="M -41.1 -198.3 Q -122.2 -313.3 -206.1 -415.1" class="limb ghost"/></g><g id="worker-s024--arm-right" class="rig-part" data-part="arm-right" style="transform-origin:43px -200px"><path d="M 43.0 -200.0 Q 72.1 -143.2 118.0 -92.0" class="limb"/><path d="M 41.7 -199.1 Q 72.7 -143.9 118.5 -91.7" class="limb ghost"/></g><g id="worker-s024--torso" class="rig-part" data-part="torso"><rect x="-62" y="-244" width="124" height="188" rx="42" class="outfit"/><rect x="18" y="-199" width="26" height="28" rx="5" class="pocket"/><line x1="0" y1="-248" x2="0" y2="-257" class="neck"/></g><g id="worker-s024--head" class="rig-part" data-part="head" style="transform-origin:0px -334px" transform="rotate(-5 0 -334)"><circle cx="0" cy="-334" r="91" class="head"/><circle cx="-27" cy="-342" r="7" class="eye"/><circle cx="27" cy="-342" r="7" class="eye"/><path d="M -48 -378 Q -28 -392 -8 -376" class="face-line"/><path d="M 8 -368 Q 28 -376 47 -366" class="face-line"/><path d="M -27 -314 Q 0 -284 29 -310" class="face-line"/></g></g><g id="peer-s024-3" class="character rough character-rig" data-rig="CO_WORKER_V1" data-expression="neutral" data-pose="neutral" transform="translate(1191 428) scale(0.42 0.42)"><g id="peer-s024-3--leg-left" class="rig-part" data-part="leg-left" style="transform-origin:-32px -65px"><path d="M -32.0 -65.0 Q -40.4 12.6 -68.0 92.0" class="limb"/><path d="M -31.1 -64.1 Q -42.1 10.1 -67.6 90.5" class="limb ghost"/><line x1="-90" y1="92" x2="-50" y2="92" class="shoe"/></g><g id="peer-s024-3--leg-right" class="rig-part" data-part="leg-right" style="transform-origin:32px -65px"><path d="M 32.0 -65.0 Q 59.2 20.9 68.0 92.0" class="limb"/><path d="M 32.9 -66.1 Q 58.2 22.2 69.2 90.1" class="limb ghost"/><line x1="50" y1="92" x2="90" y2="92" class="shoe"/></g><g id="peer-s024-3--arm-left" class="rig-part" data-part="arm-left" style="transform-origin:-43px -200px"><path d="M -43.0 -200.0 Q -79.6 -152.3 -120.0 -90.0" class="limb"/><path d="M -41.1 -198.3 Q -79.7 -151.3 -121.1 -91.1" class="limb ghost"/></g><g id="peer-s024-3--arm-right" class="rig-part" data-part="arm-right" style="transform-origin:43px -200px"><path d="M 43.0 -200.0 Q 73.1 -142.2 120.0 -90.0" class="limb"/><path d="M 41.7 -199.1 Q 73.7 -142.9 120.5 -89.7" class="limb ghost"/></g><g id="peer-s024-3--torso" class="rig-part" data-part="torso"><rect x="-62" y="-244" width="124" height="188" rx="42" class="outfit"/><rect x="18" y="-199" width="26" height="28" rx="5" class="pocket"/><line x1="0" y1="-248" x2="0" y2="-257" class="neck"/></g><g id="peer-s024-3--head" class="rig-part" data-part="head" style="transform-origin:0px -334px" transform="rotate(0 0 -334)"><circle cx="0" cy="-334" r="91" class="head"/><circle cx="-27" cy="-342" r="7" class="eye"/><circle cx="27" cy="-342" r="7" class="eye"/><path d="M -44 -369 Q -27 -376 -10 -369" class="face-line"/><path d="M 10 -369 Q 27 -376 44 -369" class="face-line"/><path d="M -24 -310 Q 0 -298 24 -310" class="face-line"/></g></g><g id="peer-s024-4" class="character rough character-rig" data-rig="CO_WORKER_V1" data-expression="fascinated" data-pose="celebrate" transform="translate(1429 297) scale(0.42 0.42)"><g id="peer-s024-4--leg-left" class="rig-part" data-part="leg-left" style="transform-origin:-32px -65px"><path d="M -32.0 -65.0 Q -44.4 12.6 -76.0 92.0" class="limb"/><path d="M -31.1 -64.1 Q -46.1 10.1 -75.6 90.5" class="limb ghost"/><line x1="-98" y1="92" x2="-58" y2="92" class="shoe"/></g><g id="peer-s024-4--leg-right" class="rig-part" data-part="leg-right" style="transform-origin:32px -65px"><path d="M 32.0 -65.0 Q 63.2 20.9 76.0 92.0" class="limb"/><path d="M 32.9 -66.1 Q 62.2 22.2 77.2 90.1" class="limb ghost"/><line x1="58" y1="92" x2="98" y2="92" class="shoe"/></g><g id="peer-s024-4--arm-left" class="rig-part" data-part="arm-left" style="transform-origin:-43px -200px"><path d="M -43.0 -200.0 Q -92.1 -252.3 -145.0 -290.0" class="limb"/><path d="M -41.1 -198.3 Q -92.2 -251.3 -146.1 -291.1" class="limb ghost"/></g><g id="peer-s024-4--arm-right" class="rig-part" data-part="arm-right" style="transform-origin:43px -200px"><path d="M 43.0 -200.0 Q 85.6 -242.2 145.0 -290.0" class="limb"/><path d="M 41.7 -199.1 Q 86.2 -242.9 145.5 -289.7" class="limb ghost"/></g><g id="peer-s024-4--torso" class="rig-part" data-part="torso"><rect x="-62" y="-244" width="124" height="188" rx="42" class="outfit"/><rect x="18" y="-199" width="26" height="28" rx="5" class="pocket"/><line x1="0" y1="-248" x2="0" y2="-257" class="neck"/></g><g id="peer-s024-4--head" class="rig-part" data-part="head" style="transform-origin:0px -334px" transform="rotate(0 0 -334)"><circle cx="0" cy="-334" r="91" class="head"/><circle cx="-27" cy="-342" r="7" class="eye"/><circle cx="27" cy="-342" r="7" class="eye"/><path d="M -48 -375 Q -27 -389 -7 -374" class="face-line"/><path d="M 7 -374 Q 27 -389 48 -375" class="face-line"/><path d="M -34 -316 Q 0 -276 34 -316" class="face-line"/><circle cx="-27" cy="-342" r="14" fill="none" class="face-line"/><circle cx="27" cy="-342" r="14" fill="none" class="face-line"/></g></g><text x="585" y="1010" class="label">O LUGAR NO GRUPO MUDA A LEITURA</text>
</svg>
