<?xml version="1.0" encoding="UTF-8"?>
<svg xmlns="http://www.w3.org/2000/svg" width="1920" height="1080" viewBox="0 0 1920 1080" role="img">
<metadata>{"actions": [{"animation": "stamp_down", "duration": 0.6, "start": 0.5, "target": "fictional-case-file-s034--stamp"}, {"animation": "hold", "duration": 5.0, "start": 1.1, "target": "scene"}], "asset_id": "A30", "camera": {"focus": "fictional_case_file", "shot": "top_down"}, "composition": "fictional_case_stamp", "descriptor_source": "assets/vector_scenes.json", "duration_seconds": 10, "episode_id": "CO-001", "generated_at": "2026-09-24T12:18:05-03:00", "motion": "Carimbo rápido", "rigged_characters": true, "scene_id": "S034", "source": "04_ROTEIRO_VISUAL.csv", "style_id": "CO_SKETCH_V1", "visual": "Carimbo FICTÍCIO sobre ficha de Ana, sem invalidar a conta"}</metadata><defs><style>
    .ink,.limb,.shoe,.neck,.face-line,.growth,.balance-low,.calendar-line,.phone-detail { fill:none; stroke:#171918; stroke-width:14; stroke-linecap:round; stroke-linejoin:round; }
    .ghost { opacity:.16; stroke-width:5; }
    .limb { stroke-width:18; } .shoe { stroke-width:24; } .neck { stroke-width:18; }
    .face-line { stroke-width:8; } .eye { fill:#171918; } .mouth-open { fill:#171918; }
    .head { fill:#F3EBDD; stroke:#171918; stroke-width:13; } .hair { fill:#171918; stroke:#171918; stroke-width:8; stroke-linejoin:round; }
    .outfit { fill:#171918; stroke:#171918; stroke-width:10; } .pocket { fill:#A8D83E; }
    .phone-shell { fill:#171918; stroke:#FFFDF7; stroke-width:8; }
    .phone-screen { fill:#26302C; stroke:#343936; stroke-width:4; }
    .phone-detail { stroke:#FFFDF7; stroke-width:6; } .alert-card { fill:#FFFDF7; stroke:#A8D83E; stroke-width:9; }
    .growth { stroke:#A8D83E; stroke-width:15; } .balance-low { stroke:#D95F59; stroke-width:13; }
    .paper-card { fill:#FFFDF7; stroke:#171918; stroke-width:11; }
    .calendar-line { stroke-width:10; } .calendar-dot { fill:#F5C84B; stroke:#171918; stroke-width:5; }
    .bill { fill:#FFFDF7; stroke:#D95F59; stroke-width:9; } .bill-dot { fill:#D95F59; }
    .headline { font-family:Trebuchet MS, Arial Rounded MT Bold, Arial, sans-serif; font-size:72px; font-weight:900; letter-spacing:1px; fill:#171918; }
    .headline-light { font-family:Trebuchet MS, Arial Rounded MT Bold, Arial, sans-serif; font-size:72px; font-weight:900; letter-spacing:1px; fill:#FFFDF7; }
    .label { font-family:Trebuchet MS, Arial Rounded MT Bold, Arial, sans-serif; font-size:38px; font-weight:800; fill:#171918; }
    .label-light { font-family:Trebuchet MS, Arial Rounded MT Bold, Arial, sans-serif; font-size:38px; font-weight:800; fill:#FFFDF7; }
    .rough { filter:url(#roughen); }
    </style><filter id="roughen" x="-5%" y="-5%" width="110%" height="110%"><feTurbulence type="fractalNoise" baseFrequency="0.009" numOctaves="1" seed="23" result="noise"/><feDisplacementMap in="SourceGraphic" in2="noise" scale="1.35" xChannelSelector="R" yChannelSelector="G"/></filter><pattern id="paperDots" width="22" height="22" patternUnits="userSpaceOnUse"><circle cx="4" cy="4" r="1.1" fill="#171918" opacity="0.1"/></pattern><marker id="arrow" viewBox="0 0 12 12" refX="10" refY="6" markerWidth="10" markerHeight="10" orient="auto-start-reverse"><path d="M 0 0 L 12 6 L 0 12 Z" class="arrow-fill"/></marker><marker id="arrow-yellow" viewBox="0 0 12 12" refX="10" refY="6" markerWidth="10" markerHeight="10" orient="auto-start-reverse"><path d="M 0 0 L 12 6 L 0 12 Z" fill="#F5C84B"/></marker><marker id="arrow-dark" viewBox="0 0 12 12" refX="10" refY="6" markerWidth="10" markerHeight="10" orient="auto-start-reverse"><path d="M 0 0 L 12 6 L 0 12 Z" fill="#171918"/></marker><marker id="arrow-red" viewBox="0 0 12 12" refX="10" refY="6" markerWidth="10" markerHeight="10" orient="auto-start-reverse"><path d="M 0 0 L 12 6 L 0 12 Z" fill="#D95F59"/></marker><style>.arrow-fill{fill:#A8D83E;stroke:none}</style></defs><rect x="0" y="0" width="1920" height="1080" fill="#171918"/><path d="M 0 910 Q 450 875 930 914 T 1920 890 L 1920 1080 L 0 1080 Z" class="" fill="#343936" opacity="0.42"/><text x="116" y="142" class="headline-light">EXEMPLO FICTÍCIO</text><ellipse cx="960" cy="930" rx="530" ry="75" fill="#FFFDF7" opacity="0.08"/><g id="fictional-case-file-s034" class="rough" transform="translate(960 585) scale(1.17)" data-object="fictional-case-file"><path d="M -390 -275 Q 0 -300 390 -275 L 375 275 Q 0 300 -380 272 Z" fill="#FFFDF7" stroke="#171918" stroke-width="13"/><circle cx="-245" cy="-110" r="72" fill="#F3EBDD" stroke="#171918" stroke-width="10"/><path d="M -275 -108 Q -245 -155 -215 -108 M -270 -75 Q -245 -52 -220 -75" class="face-line"/><rect x="-120" y="-180" width="365" height="18" rx="9" fill="#343936" opacity="0.38"/><rect x="-120" y="-115" width="337" height="18" rx="9" fill="#343936" opacity="0.38"/><rect x="-120" y="-50" width="309" height="18" rx="9" fill="#343936" opacity="0.38"/><rect x="-120" y="15" width="281" height="18" rx="9" fill="#343936" opacity="0.38"/><rect x="-285" y="115" width="560" height="75" rx="18" fill="#F3EBDD" stroke="#171918" stroke-width="8"/><rect x="-270" y="128" width="90" height="50" rx="10" fill="#D95F59" stroke="#171918" stroke-width="5"/><rect x="-165" y="128" width="90" height="50" rx="10" fill="#D95F59" stroke="#171918" stroke-width="5"/><rect x="-60" y="128" width="90" height="50" rx="10" fill="#D95F59" stroke="#171918" stroke-width="5"/><rect x="45" y="128" width="90" height="50" rx="10" fill="#D95F59" stroke="#171918" stroke-width="5"/><rect x="150" y="128" width="90" height="50" rx="10" fill="#A8D83E" stroke="#171918" stroke-width="5"/><rect x="-245" y="-95" width="490" height="190" rx="26" id="fictional-case-file-s034--stamp" data-part="stamp" fill="none" stroke="#D95F59" stroke-width="22" transform="rotate(-12)"/></g><g transform="translate(750 530) rotate(-12 210 46)"><rect x="0" y="0" width="420" height="92" rx="20" fill="#FFFDF7" stroke="#D95F59" stroke-width="12"/><text x="210" y="63" class="headline" text-anchor="middle" fill="#D95F59" font-size="58">FICTÍCIO</text></g><text x="660" y="1015" class="label-light">CONTA DIDÁTICA • NÃO É MÉDIA NACIONAL</text>
</svg>
