<?xml version="1.0" encoding="UTF-8"?>
<svg xmlns="http://www.w3.org/2000/svg" width="1920" height="1080" viewBox="0 0 1920 1080" role="img">
<metadata>{"actions": [{"animation": "rotate_short", "duration": 1.2, "start": 0.4, "target": "three-gears-s037--adaptation"}, {"animation": "rotate_short", "duration": 1.2, "start": 2.8, "target": "three-gears-s037--commitments"}], "asset_id": "A32", "camera": {"focus": "three_gears", "shot": "wide"}, "composition": "three_mechanism_gears", "descriptor_source": "assets/vector_scenes.json", "duration_seconds": 10, "episode_id": "CO-001", "generated_at": "2026-09-24T12:37:37-03:00", "motion": "Giro sequencial", "rigged_characters": true, "scene_id": "S037", "source": "04_ROTEIRO_VISUAL.csv", "style_id": "CO_SKETCH_V1", "visual": "Três engrenagens rotuladas visualmente por ícones: adaptação, comparação e compromissos"}</metadata><defs><style>
    .ink,.limb,.shoe,.neck,.face-line,.growth,.balance-low,.calendar-line,.phone-detail { fill:none; stroke:#171918; stroke-width:14; stroke-linecap:round; stroke-linejoin:round; }
    .ghost { opacity:.16; stroke-width:5; }
    .limb { stroke-width:18; } .shoe { stroke-width:24; } .neck { stroke-width:18; }
    .face-line { stroke-width:8; } .eye { fill:#171918; } .mouth-open { fill:#171918; }
    .head { fill:#F3EBDD; stroke:#171918; stroke-width:13; } .hair { fill:#171918; stroke:#171918; stroke-width:8; stroke-linejoin:round; }
    .outfit { fill:#171918; stroke:#171918; stroke-width:10; } .pocket { fill:#A8D83E; }
    .phone-shell { fill:#171918; stroke:#FFFDF7; stroke-width:8; }
    .phone-screen { fill:#26302C; stroke:#343936; stroke-width:4; }
    .phone-detail { stroke:#FFFDF7; stroke-width:6; } .alert-card { fill:#FFFDF7; stroke:#A8D83E; stroke-width:9; }
    .growth { stroke:#A8D83E; stroke-width:15; } .balance-low { stroke:#D95F59; stroke-width:13; }
    .paper-card { fill:#FFFDF7; stroke:#171918; stroke-width:11; }
    .calendar-line { stroke-width:10; } .calendar-dot { fill:#F5C84B; stroke:#171918; stroke-width:5; }
    .bill { fill:#FFFDF7; stroke:#D95F59; stroke-width:9; } .bill-dot { fill:#D95F59; }
    .headline { font-family:Trebuchet MS, Arial Rounded MT Bold, Arial, sans-serif; font-size:72px; font-weight:900; letter-spacing:1px; fill:#171918; }
    .headline-light { font-family:Trebuchet MS, Arial Rounded MT Bold, Arial, sans-serif; font-size:72px; font-weight:900; letter-spacing:1px; fill:#FFFDF7; }
    .label { font-family:Trebuchet MS, Arial Rounded MT Bold, Arial, sans-serif; font-size:38px; font-weight:800; fill:#171918; }
    .label-light { font-family:Trebuchet MS, Arial Rounded MT Bold, Arial, sans-serif; font-size:38px; font-weight:800; fill:#FFFDF7; }
    .rough { filter:url(#roughen); }
    </style><filter id="roughen" x="-5%" y="-5%" width="110%" height="110%"><feTurbulence type="fractalNoise" baseFrequency="0.009" numOctaves="1" seed="23" result="noise"/><feDisplacementMap in="SourceGraphic" in2="noise" scale="1.35" xChannelSelector="R" yChannelSelector="G"/></filter><pattern id="paperDots" width="22" height="22" patternUnits="userSpaceOnUse"><circle cx="4" cy="4" r="1.1" fill="#171918" opacity="0.1"/></pattern><marker id="arrow" viewBox="0 0 12 12" refX="10" refY="6" markerWidth="10" markerHeight="10" orient="auto-start-reverse"><path d="M 0 0 L 12 6 L 0 12 Z" class="arrow-fill"/></marker><marker id="arrow-yellow" viewBox="0 0 12 12" refX="10" refY="6" markerWidth="10" markerHeight="10" orient="auto-start-reverse"><path d="M 0 0 L 12 6 L 0 12 Z" fill="#F5C84B"/></marker><marker id="arrow-dark" viewBox="0 0 12 12" refX="10" refY="6" markerWidth="10" markerHeight="10" orient="auto-start-reverse"><path d="M 0 0 L 12 6 L 0 12 Z" fill="#171918"/></marker><marker id="arrow-red" viewBox="0 0 12 12" refX="10" refY="6" markerWidth="10" markerHeight="10" orient="auto-start-reverse"><path d="M 0 0 L 12 6 L 0 12 Z" fill="#D95F59"/></marker><style>.arrow-fill{fill:#A8D83E;stroke:none}</style></defs><rect x="0" y="0" width="1920" height="1080" fill="#F3EBDD"/><rect x="0" y="0" width="1920" height="1080" fill="url(#paperDots)"/><text x="116" y="142" class="headline">3 FORÇAS</text><g id="three-gears-s037" class="rough" transform="translate(960 520) scale(1.12)" data-object="three-gears"><g id="three-gears-s037--adaptation" data-part="adaptation"><path d="M 152.0 -175.0 L 192.0 -175.0" fill="none" stroke="#171918" stroke-width="28" stroke-linecap="round"/><path d="M 107.5 -67.5 L 135.8 -39.2" fill="none" stroke="#171918" stroke-width="28" stroke-linecap="round"/><path d="M 0.0 -23.0 L 0.0 17.0" fill="none" stroke="#171918" stroke-width="28" stroke-linecap="round"/><path d="M -107.5 -67.5 L -135.8 -39.2" fill="none" stroke="#171918" stroke-width="28" stroke-linecap="round"/><path d="M -152.0 -175.0 L -192.0 -175.0" fill="none" stroke="#171918" stroke-width="28" stroke-linecap="round"/><path d="M -107.5 -282.5 L -135.8 -310.8" fill="none" stroke="#171918" stroke-width="28" stroke-linecap="round"/><path d="M -0.0 -327.0 L -0.0 -367.0" fill="none" stroke="#171918" stroke-width="28" stroke-linecap="round"/><path d="M 107.5 -282.5 L 135.8 -310.8" fill="none" stroke="#171918" stroke-width="28" stroke-linecap="round"/><circle cx="0" cy="-175" r="150" fill="#A8D83E" stroke="#171918" stroke-width="13"/><circle cx="0" cy="-175" r="34" fill="#FFFDF7" stroke="#171918" stroke-width="10"/></g><g id="three-gears-s037--comparison" data-part="comparison"><path d="M -83.0 135.0 L -43.0 135.0" fill="none" stroke="#171918" stroke-width="28" stroke-linecap="round"/><path d="M -127.5 242.5 L -99.2 270.8" fill="none" stroke="#171918" stroke-width="28" stroke-linecap="round"/><path d="M -235.0 287.0 L -235.0 327.0" fill="none" stroke="#171918" stroke-width="28" stroke-linecap="round"/><path d="M -342.5 242.5 L -370.8 270.8" fill="none" stroke="#171918" stroke-width="28" stroke-linecap="round"/><path d="M -387.0 135.0 L -427.0 135.0" fill="none" stroke="#171918" stroke-width="28" stroke-linecap="round"/><path d="M -342.5 27.5 L -370.8 -0.8" fill="none" stroke="#171918" stroke-width="28" stroke-linecap="round"/><path d="M -235.0 -17.0 L -235.0 -57.0" fill="none" stroke="#171918" stroke-width="28" stroke-linecap="round"/><path d="M -127.5 27.5 L -99.2 -0.8" fill="none" stroke="#171918" stroke-width="28" stroke-linecap="round"/><circle cx="-235" cy="135" r="150" fill="#F5C84B" stroke="#171918" stroke-width="13"/><circle cx="-235" cy="135" r="34" fill="#FFFDF7" stroke="#171918" stroke-width="10"/></g><g id="three-gears-s037--commitments" data-part="commitments"><path d="M 387.0 135.0 L 427.0 135.0" fill="none" stroke="#171918" stroke-width="28" stroke-linecap="round"/><path d="M 342.5 242.5 L 370.8 270.8" fill="none" stroke="#171918" stroke-width="28" stroke-linecap="round"/><path d="M 235.0 287.0 L 235.0 327.0" fill="none" stroke="#171918" stroke-width="28" stroke-linecap="round"/><path d="M 127.5 242.5 L 99.2 270.8" fill="none" stroke="#171918" stroke-width="28" stroke-linecap="round"/><path d="M 83.0 135.0 L 43.0 135.0" fill="none" stroke="#171918" stroke-width="28" stroke-linecap="round"/><path d="M 127.5 27.5 L 99.2 -0.8" fill="none" stroke="#171918" stroke-width="28" stroke-linecap="round"/><path d="M 235.0 -17.0 L 235.0 -57.0" fill="none" stroke="#171918" stroke-width="28" stroke-linecap="round"/><path d="M 342.5 27.5 L 370.8 -0.8" fill="none" stroke="#171918" stroke-width="28" stroke-linecap="round"/><circle cx="235" cy="135" r="150" fill="#D95F59" stroke="#171918" stroke-width="13"/><circle cx="235" cy="135" r="34" fill="#FFFDF7" stroke="#171918" stroke-width="10"/></g><path d="M -55 -240 L 55 -240 L 55 -110 L -55 -110 Z" fill="#FFFDF7" stroke="#171918" stroke-width="8"/><path d="M -40 -215 L 5 -215" fill="none" stroke="#171918" stroke-width="6"/><path d="M -40 -187 L 25 -187" fill="none" stroke="#171918" stroke-width="6"/><path d="M -40 -159 L 5 -159" fill="none" stroke="#171918" stroke-width="6"/><path d="M -40 -131 L 25 -131" fill="none" stroke="#171918" stroke-width="6"/><circle cx="-275" cy="90" r="25" fill="#FFFDF7" stroke="#171918" stroke-width="7"/><circle cx="-195" cy="90" r="25" fill="#FFFDF7" stroke="#171918" stroke-width="7"/><path d="M -275 118 L -275 170 M -195 118 L -195 170" fill="none" stroke="#171918" stroke-width="11" stroke-linecap="round"/><rect x="170" y="72" width="130" height="115" rx="15" fill="#FFFDF7" stroke="#171918" stroke-width="8"/><path d="M 195 110 L 275 110 M 195 145 L 255 145" fill="none" stroke="#D95F59" stroke-width="7" stroke-linecap="round"/></g><ellipse cx="960" cy="835" rx="170" ry="190" fill="#A8D83E" opacity="0.08"/><g id="worker-s037" class="character rough character-rig" data-rig="CO_WORKER_V1" data-expression="realization" data-pose="neutral" transform="translate(960 1000) scale(0.64 0.64)"><g id="worker-s037--leg-left" class="rig-part" data-part="leg-left" style="transform-origin:-32px -65px"><path d="M -32.0 -65.0 Q -40.4 12.6 -68.0 92.0" class="limb"/><path d="M -31.1 -64.1 Q -42.1 10.1 -67.6 90.5" class="limb ghost"/><line x1="-90" y1="92" x2="-50" y2="92" class="shoe"/></g><g id="worker-s037--leg-right" class="rig-part" data-part="leg-right" style="transform-origin:32px -65px"><path d="M 32.0 -65.0 Q 59.2 20.9 68.0 92.0" class="limb"/><path d="M 32.9 -66.1 Q 58.2 22.2 69.2 90.1" class="limb ghost"/><line x1="50" y1="92" x2="90" y2="92" class="shoe"/></g><g id="worker-s037--arm-left" class="rig-part" data-part="arm-left" style="transform-origin:-43px -200px"><path d="M -43.0 -200.0 Q -79.6 -152.3 -120.0 -90.0" class="limb"/><path d="M -41.1 -198.3 Q -79.7 -151.3 -121.1 -91.1" class="limb ghost"/></g><g id="worker-s037--arm-right" class="rig-part" data-part="arm-right" style="transform-origin:43px -200px"><path d="M 43.0 -200.0 Q 73.1 -142.2 120.0 -90.0" class="limb"/><path d="M 41.7 -199.1 Q 73.7 -142.9 120.5 -89.7" class="limb ghost"/></g><g id="worker-s037--torso" class="rig-part" data-part="torso"><rect x="-62" y="-244" width="124" height="188" rx="42" class="outfit"/><rect x="18" y="-199" width="26" height="28" rx="5" class="pocket"/><line x1="0" y1="-248" x2="0" y2="-257" class="neck"/></g><g id="worker-s037--head" class="rig-part" data-part="head" style="transform-origin:0px -334px" transform="rotate(0 0 -334)"><circle cx="0" cy="-334" r="91" class="head"/><circle cx="-27" cy="-342" r="7" class="eye"/><circle cx="27" cy="-342" r="7" class="eye"/><path d="M -48 -378 Q -28 -392 -8 -376" class="face-line"/><path d="M 8 -368 Q 28 -376 47 -366" class="face-line"/><path d="M -27 -314 Q 0 -284 29 -310" class="face-line"/></g></g><text x="785" y="245" class="label">ADAPTAÇÃO</text><text x="380" y="910" class="label">COMPARAÇÃO</text><text x="1260" y="910" class="label">COMPROMISSOS</text>
</svg>
