<?xml version="1.0" encoding="UTF-8"?>
<svg xmlns="http://www.w3.org/2000/svg" width="900" height="650" viewBox="0 0 900 650" role="img">
<metadata>{"asset": "locking_calendar", "style_id": "CO_SKETCH_V1"}</metadata><defs><style>
    .ink,.limb,.shoe,.neck,.face-line,.growth,.balance-low,.calendar-line,.phone-detail { fill:none; stroke:#171918; stroke-width:14; stroke-linecap:round; stroke-linejoin:round; }
    .ghost { opacity:.16; stroke-width:5; }
    .limb { stroke-width:18; } .shoe { stroke-width:24; } .neck { stroke-width:18; }
    .face-line { stroke-width:8; } .eye { fill:#171918; } .mouth-open { fill:#171918; }
    .head { fill:#F3EBDD; stroke:#171918; stroke-width:13; } .hair { fill:#171918; stroke:#171918; stroke-width:8; stroke-linejoin:round; }
    .outfit { fill:#171918; stroke:#171918; stroke-width:10; } .pocket { fill:#A8D83E; }
    .phone-shell { fill:#171918; stroke:#FFFDF7; stroke-width:8; }
    .phone-screen { fill:#26302C; stroke:#343936; stroke-width:4; }
    .phone-detail { stroke:#FFFDF7; stroke-width:6; } .alert-card { fill:#FFFDF7; stroke:#A8D83E; stroke-width:9; }
    .growth { stroke:#A8D83E; stroke-width:15; } .balance-low { stroke:#D95F59; stroke-width:13; }
    .paper-card { fill:#FFFDF7; stroke:#171918; stroke-width:11; }
    .calendar-line { stroke-width:10; } .calendar-dot { fill:#F5C84B; stroke:#171918; stroke-width:5; }
    .bill { fill:#FFFDF7; stroke:#D95F59; stroke-width:9; } .bill-dot { fill:#D95F59; }
    .headline { font-family:Trebuchet MS, Arial Rounded MT Bold, Arial, sans-serif; font-size:72px; font-weight:900; letter-spacing:1px; fill:#171918; }
    .headline-light { font-family:Trebuchet MS, Arial Rounded MT Bold, Arial, sans-serif; font-size:72px; font-weight:900; letter-spacing:1px; fill:#FFFDF7; }
    .label { font-family:Trebuchet MS, Arial Rounded MT Bold, Arial, sans-serif; font-size:38px; font-weight:800; fill:#171918; }
    .label-light { font-family:Trebuchet MS, Arial Rounded MT Bold, Arial, sans-serif; font-size:38px; font-weight:800; fill:#FFFDF7; }
    .rough { filter:url(#roughen); }
    </style><filter id="roughen" x="-5%" y="-5%" width="110%" height="110%"><feTurbulence type="fractalNoise" baseFrequency="0.009" numOctaves="1" seed="23" result="noise"/><feDisplacementMap in="SourceGraphic" in2="noise" scale="1.35" xChannelSelector="R" yChannelSelector="G"/></filter><pattern id="paperDots" width="22" height="22" patternUnits="userSpaceOnUse"><circle cx="4" cy="4" r="1.1" fill="#171918" opacity="0.1"/></pattern><marker id="arrow" viewBox="0 0 12 12" refX="10" refY="6" markerWidth="10" markerHeight="10" orient="auto-start-reverse"><path d="M 0 0 L 12 6 L 0 12 Z" class="arrow-fill"/></marker><marker id="arrow-yellow" viewBox="0 0 12 12" refX="10" refY="6" markerWidth="10" markerHeight="10" orient="auto-start-reverse"><path d="M 0 0 L 12 6 L 0 12 Z" fill="#F5C84B"/></marker><marker id="arrow-dark" viewBox="0 0 12 12" refX="10" refY="6" markerWidth="10" markerHeight="10" orient="auto-start-reverse"><path d="M 0 0 L 12 6 L 0 12 Z" fill="#171918"/></marker><marker id="arrow-red" viewBox="0 0 12 12" refX="10" refY="6" markerWidth="10" markerHeight="10" orient="auto-start-reverse"><path d="M 0 0 L 12 6 L 0 12 Z" fill="#D95F59"/></marker><style>.arrow-fill{fill:#A8D83E;stroke:none}</style></defs><rect x="0" y="0" width="900" height="650" fill="#FFFDF7"/><g transform="translate(450.0 507.0)"><g id="locking-calendar" class="rough" transform="translate(0 -120) scale(0.62)" data-object="locking-calendar"><path d="M -520 120 Q 0 80 520 120" fill="none" stroke="#171918" stroke-width="14" stroke-linecap="round"/><g id="locking-calendar--lock-1" data-part="lock-1"><rect x="-485" y="-195" width="250" height="260" rx="25" fill="#FFFDF7" stroke="#171918" stroke-width="11"/><path d="M -430 -220 L -430 -160 M -290 -220 L -290 -160" fill="none" stroke="#171918" stroke-width="15" stroke-linecap="round"/><rect x="-412" y="-95" width="104" height="72" rx="15" fill="#F5C84B" stroke="#171918" stroke-width="8"/><rect x="-418" y="5" width="116" height="105" rx="20" fill="#D95F59" stroke="#171918" stroke-width="9"/><path d="M -394 5 Q -360 -70 -326 5" fill="none" stroke="#171918" stroke-width="12"/><circle cx="-360" cy="58" r="13" fill="#FFFDF7"/></g><g id="locking-calendar--lock-2" data-part="lock-2"><rect x="-125" y="-195" width="250" height="260" rx="25" fill="#FFFDF7" stroke="#171918" stroke-width="11"/><path d="M -70 -220 L -70 -160 M 70 -220 L 70 -160" fill="none" stroke="#171918" stroke-width="15" stroke-linecap="round"/><rect x="-52" y="-95" width="104" height="72" rx="15" fill="#F3EBDD" stroke="#171918" stroke-width="8"/><rect x="-58" y="5" width="116" height="105" rx="20" fill="#D95F59" stroke="#171918" stroke-width="9"/><path d="M -34 5 Q 0 -70 34 5" fill="none" stroke="#171918" stroke-width="12"/><circle cx="0" cy="58" r="13" fill="#FFFDF7"/></g><g id="locking-calendar--lock-3" data-part="lock-3"><rect x="235" y="-195" width="250" height="260" rx="25" fill="#FFFDF7" stroke="#171918" stroke-width="11"/><path d="M 290 -220 L 290 -160 M 430 -220 L 430 -160" fill="none" stroke="#171918" stroke-width="15" stroke-linecap="round"/><rect x="308" y="-95" width="104" height="72" rx="15" fill="#F3EBDD" stroke="#171918" stroke-width="8"/><rect x="302" y="5" width="116" height="105" rx="20" fill="#D95F59" stroke="#171918" stroke-width="9"/><path d="M 326 5 Q 360 -70 394 5" fill="none" stroke="#171918" stroke-width="12"/><circle cx="360" cy="58" r="13" fill="#FFFDF7"/></g><path d="M -510 185 Q 0 245 510 185" fill="none" stroke="#D95F59" stroke-width="10" stroke-dasharray="18 17" opacity="0.68"/></g></g>
</svg>
